<svg width="120" height="60" viewBox="0 0 120 60" fill="none" xmlns="http://www.w3.org/2000/svg">
<path d="M61.7711 19.3984C63.7026 19.3883 65.261 17.952 65.2518 16.1903C65.2425 14.4286 63.6692 13.0087 61.7376 13.0188C59.8061 13.0289 58.2477 14.4652 58.2569 16.2269C58.2662 17.9886 59.8395 19.4085 61.7711 19.3984Z" fill="#706972"/>
<path d="M40.3234 13.1895H46.6975C46.7343 13.1895 46.7695 13.2041 46.7955 13.23C46.8215 13.256 46.8361 13.2913 46.8361 13.328V28.6453C46.8361 28.6704 46.8264 28.6946 46.809 28.7131C46.7915 28.7316 46.7676 28.743 46.7419 28.7451L40.2319 29.1525C40.2151 29.1536 40.1982 29.1513 40.1823 29.1458C40.1664 29.1402 40.1518 29.1314 40.1393 29.12C40.1269 29.1086 40.1169 29.0948 40.11 29.0794C40.103 29.0641 40.0993 29.0474 40.0989 29.0306C39.9603 23.7927 39.9927 18.553 40.1959 13.3114C40.1973 13.2786 40.2114 13.2475 40.2352 13.2248C40.2589 13.2021 40.2905 13.1894 40.3234 13.1895Z" fill="#706972"/>
<path d="M49.4697 13.1895H55.8438C55.8806 13.1895 55.9158 13.2041 55.9418 13.23C55.9678 13.256 55.9824 13.2913 55.9824 13.328V27.9497C55.9825 27.9876 55.9683 28.0241 55.9425 28.0518C55.9168 28.0796 55.8816 28.0966 55.8438 28.0994L49.4004 28.5483C49.382 28.5495 49.3635 28.5469 49.3461 28.5408C49.3287 28.5347 49.3126 28.5251 49.299 28.5127C49.2853 28.5004 49.2742 28.4854 49.2664 28.4686C49.2586 28.4519 49.2542 28.4338 49.2535 28.4153C49.1057 23.3807 49.1353 18.346 49.3422 13.3114C49.3436 13.2786 49.3577 13.2475 49.3814 13.2248C49.4052 13.2021 49.4368 13.1894 49.4697 13.1895Z" fill="#706972"/>
<path d="M101.244 20.8759C103.415 21.1863 104.96 22.4288 105.88 24.6034L88.3375 25.845C88.3202 25.8465 88.3028 25.8444 88.2863 25.8389C88.2699 25.8333 88.2548 25.8244 88.242 25.8126C88.2292 25.8009 88.2191 25.7866 88.2121 25.7707C88.2052 25.7548 88.2016 25.7376 88.2017 25.7203L88.1934 13.3628C88.1934 13.315 88.2123 13.2692 88.2461 13.2354C88.2799 13.2016 88.3257 13.1826 88.3735 13.1826L94.8529 13.1965C94.889 13.1965 94.9235 13.2108 94.949 13.2362C94.9744 13.2617 94.9887 13.2963 94.9887 13.3323V23.021C94.9887 23.1226 95.0238 23.1355 95.0941 23.0598C96.6848 21.3341 98.7347 20.6062 101.244 20.8759Z" fill="#706972"/>
<path d="M6.78984 31.0828V39.3359C6.78984 39.3653 6.77816 39.3935 6.75737 39.4143C6.73658 39.4351 6.70839 39.4468 6.67899 39.4468L0.174596 39.4496C0.128291 39.4496 0.0838816 39.4315 0.0511385 39.3992C0.0183954 39.367 0 39.3233 0 39.2777V14.984C0.000271299 14.9381 0.017031 14.8939 0.0471349 14.8597C0.0772388 14.8255 0.118618 14.8037 0.163511 14.7983C4.14319 14.2967 8.80462 14.0195 12.5626 14.6597C17.5732 15.5133 20.231 19.5401 19.1557 24.3983C17.9058 30.0435 12.0527 31.3544 6.92841 30.9553C6.91076 30.9538 6.89298 30.9559 6.87621 30.9617C6.85944 30.9674 6.84405 30.9765 6.83101 30.9885C6.81797 31.0005 6.80758 31.0151 6.80049 31.0313C6.7934 31.0476 6.78977 31.0651 6.78984 31.0828ZM6.87298 25.8117C9.49469 26.1442 13.0892 25.4597 12.6125 21.8902C12.2661 19.3156 9.02356 19.1161 6.9201 19.4957C6.88379 19.5016 6.85076 19.5205 6.8269 19.5489C6.80305 19.5773 6.78991 19.6135 6.78984 19.6509V25.7174C6.78968 25.7411 6.79814 25.7639 6.81354 25.7813C6.82894 25.7988 6.85015 25.8096 6.87298 25.8117Z" fill="#706972"/>
<path d="M107.182 24.5415L107.19 21.3655C107.19 21.3288 107.205 21.2935 107.231 21.2676C107.257 21.2416 107.292 21.227 107.329 21.227H109.329C109.366 21.227 109.401 21.2124 109.427 21.1864C109.453 21.1604 109.468 21.1252 109.468 21.0884V17.9124C109.468 17.8742 109.481 17.837 109.505 17.8069C109.528 17.7768 109.561 17.7554 109.598 17.7461L113.802 16.6431L115.986 16.0972C116.003 16.093 116.021 16.0926 116.038 16.0962C116.055 16.0998 116.07 16.1073 116.084 16.118C116.098 16.1287 116.109 16.1423 116.116 16.158C116.124 16.1736 116.128 16.1907 116.128 16.208L116.117 21.0856C116.116 21.1041 116.119 21.1224 116.126 21.1395C116.133 21.1566 116.143 21.1723 116.156 21.1854C116.169 21.1986 116.184 21.209 116.201 21.2162C116.218 21.2233 116.237 21.227 116.255 21.227H119.861C119.897 21.227 119.933 21.2416 119.959 21.2676C119.985 21.2935 119.999 21.3288 119.999 21.3655V23.5023C119.999 23.5406 119.985 23.5774 119.958 23.6053C119.932 23.6331 119.896 23.6498 119.858 23.6519L107.182 24.5415Z" fill="#706972"/>
<path d="M33.7525 30.6623C35.4597 30.7704 37.1696 30.9311 38.8712 31.0032C38.9082 31.0053 38.9429 31.0219 38.9678 31.0494C38.9927 31.0769 39.0058 31.113 39.0042 31.15C38.8213 35.041 35.8033 38.2974 32.3363 39.4281C24.7123 41.9196 16.9885 34.5616 20.159 26.7491C23.8033 17.7727 37.4606 19.1168 38.9904 29.0438C38.9935 29.0632 38.9926 29.0831 38.9876 29.1021C38.9826 29.1212 38.9737 29.139 38.9614 29.1544C38.9491 29.1697 38.9338 29.1824 38.9164 29.1915C38.8989 29.2006 38.8798 29.206 38.8601 29.2073L33.7525 29.587C33.7091 29.5909 33.6656 29.5798 33.6293 29.5557C33.593 29.5315 33.5661 29.4956 33.553 29.454C31.6352 23.6175 23.6259 26.1533 25.0504 31.369C26.292 35.9112 32.6772 35.4595 33.589 30.7898C33.5957 30.7525 33.616 30.719 33.6461 30.6955C33.6762 30.672 33.714 30.6602 33.7525 30.6623Z" fill="#706972"/>
<path d="M79.8953 23.02L80.0949 21.3876C80.1003 21.3435 80.1218 21.3028 80.1555 21.2732C80.1892 21.2436 80.2326 21.2272 80.2778 21.2269H85.8399C85.8571 21.2269 85.8742 21.2303 85.89 21.2371C85.9059 21.2438 85.9202 21.2537 85.9321 21.2662C85.944 21.2786 85.9533 21.2933 85.9593 21.3094C85.9654 21.3255 85.9682 21.3427 85.9674 21.3599L85.8122 25.8883C85.8109 25.922 85.7971 25.9539 85.7736 25.978C85.75 26.0021 85.7183 26.0165 85.6847 26.0186L78.4764 26.5368C78.3868 26.5423 78.2978 26.5169 78.2242 26.4648C76.9235 25.5225 75.7023 25.6084 74.5605 26.7225C74.4998 26.7833 74.418 26.8197 74.3304 26.825L67.1388 27.3073C67.1227 27.3084 67.1067 27.3056 67.092 27.2991C67.0773 27.2927 67.0643 27.2828 67.0543 27.2703C67.0442 27.2577 67.0373 27.243 67.0342 27.2272C67.031 27.2115 67.0317 27.1952 67.0362 27.1798C67.7845 24.4675 69.3688 22.5765 71.7891 21.5068C74.4884 20.3123 77.8778 20.5451 79.79 23.0477C79.8492 23.1234 79.8843 23.1142 79.8953 23.02Z" fill="#706972"/>
<path d="M58.3203 27.8113L58.3841 21.3291C58.3841 21.3019 58.3949 21.2758 58.4141 21.2566C58.4333 21.2374 58.4594 21.2266 58.4866 21.2266H65.0187C65.0459 21.2266 65.072 21.2374 65.0912 21.2566C65.1104 21.2758 65.1212 21.3019 65.1212 21.3291L65.1905 27.354C65.1906 27.3803 65.1805 27.4056 65.1625 27.4247C65.1444 27.4437 65.1197 27.4552 65.0935 27.4566L58.4312 27.9139C58.417 27.915 58.4028 27.9132 58.3894 27.9086C58.376 27.9039 58.3636 27.8966 58.3532 27.8869C58.3428 27.8773 58.3345 27.8656 58.3288 27.8526C58.3232 27.8396 58.3203 27.8255 58.3203 27.8113Z" fill="#706972"/>
<path d="M40.1928 31.1407C42.3683 31.2183 44.53 31.4012 46.6999 31.4927C46.7365 31.4941 46.771 31.5097 46.7963 31.536C46.8216 31.5624 46.8358 31.5975 46.8357 31.634V39.247C46.8357 39.2852 46.8206 39.3218 46.7935 39.3489C46.7665 39.3759 46.7298 39.3911 46.6916 39.3911L40.1928 39.3772C40.1538 39.3772 40.1165 39.3618 40.0889 39.3342C40.0614 39.3067 40.0459 39.2693 40.0459 39.2303V31.2821C40.0459 31.263 40.0497 31.2442 40.0572 31.2267C40.0646 31.2092 40.0755 31.1933 40.0892 31.1801C40.103 31.1669 40.1192 31.1566 40.137 31.1499C40.1548 31.1431 40.1738 31.14 40.1928 31.1407Z" fill="#706972"/>
<path d="M49.3605 31.6701C51.5277 31.7782 53.7032 31.9944 55.8454 32.0443C55.881 32.045 55.9148 32.0596 55.9397 32.085C55.9646 32.1104 55.9785 32.1445 55.9785 32.1801L55.9868 39.2526C55.9868 39.2893 55.9722 39.3246 55.9462 39.3506C55.9202 39.3766 55.885 39.3912 55.8482 39.3912L49.3272 39.3745C49.3094 39.3745 49.2917 39.371 49.2752 39.3642C49.2588 39.3574 49.2438 39.3474 49.2312 39.3348C49.2186 39.3221 49.2086 39.3072 49.2017 39.2907C49.1949 39.2742 49.1914 39.2566 49.1914 39.2387V31.8309C49.1914 31.809 49.1958 31.7874 49.2044 31.7674C49.213 31.7473 49.2256 31.7292 49.2414 31.7142C49.2572 31.6991 49.2759 31.6875 49.2964 31.6799C49.3169 31.6723 49.3387 31.669 49.3605 31.6701Z" fill="#706972"/>
<path d="M65.1579 32.6923L65.2106 39.2826C65.2106 39.3069 65.2009 39.3302 65.1838 39.3473C65.1666 39.3645 65.1434 39.3741 65.1191 39.3741L58.4235 39.3907C58.3992 39.3907 58.376 39.3811 58.3588 39.3639C58.3417 39.3468 58.332 39.3235 58.332 39.2993L58.3487 32.3016C58.3486 32.2891 58.3512 32.2767 58.3561 32.2653C58.3611 32.2538 58.3683 32.2434 58.3774 32.2349C58.3865 32.2263 58.3972 32.2197 58.409 32.2154C58.4207 32.2112 58.4332 32.2094 58.4457 32.2101L65.072 32.6009C65.0953 32.6023 65.1171 32.6126 65.1331 32.6296C65.1491 32.6466 65.1579 32.669 65.1579 32.6923Z" fill="#706972"/>
<path d="M79.0006 37.3389C74.4805 41.2853 68.0094 38.5611 66.887 32.8548C66.8836 32.8377 66.8841 32.82 66.8886 32.8031C66.8931 32.7862 66.9015 32.7706 66.913 32.7574C66.9245 32.7443 66.9389 32.734 66.9551 32.7273C66.9713 32.7207 66.9887 32.7178 67.0062 32.719L74.148 33.143C74.1883 33.1456 74.2278 33.1562 74.264 33.1743C74.3002 33.1924 74.3323 33.2176 74.3586 33.2483C75.3655 34.4086 76.5544 34.6331 77.9253 33.9218C78.014 33.8774 78.0861 33.8137 78.1415 33.7306C78.3041 33.4941 78.5387 33.386 78.8454 33.4063C81.1327 33.5634 83.3932 33.7047 85.627 33.8303C85.6776 33.8331 85.7255 33.855 85.7613 33.8918C85.7971 33.9287 85.8184 33.9779 85.821 34.0299C85.9817 38.4253 85.8902 43.3971 81.6417 45.7389C77.9447 47.7786 72.6902 47.349 68.6191 46.0493C68.4893 46.0082 68.3802 45.9189 68.3142 45.7999C68.2482 45.6808 68.2304 45.5409 68.2644 45.4091L69.3951 40.9417C69.3993 40.9258 69.4069 40.9111 69.4173 40.8985C69.4278 40.8859 69.4408 40.8757 69.4555 40.8686C69.4703 40.8615 69.4863 40.8577 69.5027 40.8574C69.5191 40.8571 69.5353 40.8603 69.5503 40.8668C73.1697 42.4299 79.3942 43.3832 79.1115 37.3888C79.1078 37.2945 79.0708 37.2779 79.0006 37.3389Z" fill="#706972"/>
<path d="M88.2827 33.9982L94.9063 34.4056C94.9288 34.407 94.95 34.417 94.9654 34.4335C94.9809 34.4499 94.9894 34.4717 94.9894 34.4943V39.2888C94.9894 39.3004 94.9871 39.3119 94.9827 39.3227C94.9782 39.3335 94.9717 39.3432 94.9634 39.3515C94.9552 39.3597 94.9454 39.3662 94.9347 39.3707C94.9239 39.3751 94.9124 39.3774 94.9007 39.3774L88.2938 39.3858C88.2821 39.3858 88.2706 39.3835 88.2598 39.379C88.2491 39.3745 88.2393 39.368 88.2311 39.3598C88.2229 39.3515 88.2163 39.3418 88.2119 39.331C88.2074 39.3202 88.2051 39.3087 88.2051 39.2971L88.1885 34.0869C88.1885 34.0748 88.1909 34.0628 88.1957 34.0516C88.2005 34.0405 88.2075 34.0305 88.2164 34.0222C88.2252 34.0138 88.2357 34.0074 88.2471 34.0033C88.2585 33.9992 88.2706 33.9975 88.2827 33.9982Z" fill="#706972"/>
<path d="M99.9386 34.718C102.095 34.8261 104.348 34.876 106.468 35.1171C106.512 35.1219 106.553 35.1429 106.583 35.1762C106.613 35.2095 106.629 35.2526 106.629 35.2972V39.2048C106.629 39.2504 106.611 39.2941 106.578 39.3263C106.546 39.3585 106.502 39.3766 106.457 39.3766L99.9026 39.3877C99.8673 39.3877 99.8334 39.3737 99.8085 39.3488C99.7835 39.3238 99.7695 39.29 99.7695 39.2547V34.8815C99.7695 34.8593 99.774 34.8373 99.7826 34.8169C99.7912 34.7965 99.8037 34.7781 99.8196 34.7628C99.8354 34.7475 99.8541 34.7357 99.8745 34.728C99.895 34.7203 99.9168 34.7169 99.9386 34.718Z" fill="#706972"/>
<path d="M119.892 35.9326C119.898 35.9326 119.905 35.9355 119.909 35.9407C119.914 35.9459 119.917 35.9529 119.917 35.9603L119.903 39.139C119.903 39.1788 119.89 39.2175 119.865 39.2495C119.841 39.2815 119.806 39.305 119.767 39.3164C116.015 40.3917 110.868 40.0952 109.837 35.4587C109.834 35.4429 109.834 35.4265 109.838 35.4108C109.842 35.3952 109.849 35.3806 109.86 35.3683C109.87 35.3559 109.884 35.3462 109.898 35.3398C109.913 35.3333 109.929 35.3304 109.945 35.3312L119.892 35.9326Z" fill="#706972"/>
</svg>
